<svg width="32" height="32" viewBox="0 0 32 32" fill="none" xmlns="http://www.w3.org/2000/svg">
<circle cx="16" cy="16" r="16" fill="url(#paint0_linear_8_75)"/>
<path d="M22.8633 14.8555C22.8633 15.4349 22.7917 15.9525 22.6484 16.4082C22.5052 16.8639 22.3099 17.2676 22.0625 17.6191C21.8216 17.9642 21.5417 18.2604 21.2227 18.5078C20.9036 18.7552 20.5684 18.957 20.2168 19.1133C19.8717 19.2695 19.5202 19.3835 19.1621 19.4551C18.8105 19.5267 18.4785 19.5625 18.166 19.5625H12.4238V17.0234H18.166C18.4915 16.9974 18.7845 16.9323 19.0449 16.8281C19.3118 16.7174 19.5397 16.571 19.7285 16.3887C19.9173 16.2064 20.0638 15.9883 20.168 15.7344C20.2721 15.474 20.3242 15.181 20.3242 14.8555V13.7031C20.2917 13.3841 20.2233 13.0911 20.1191 12.8242C20.015 12.5573 19.8717 12.3294 19.6895 12.1406C19.5137 11.9518 19.2988 11.8053 19.0449 11.7012C18.791 11.5905 18.498 11.5352 18.166 11.5352H12.4434C12.1048 11.5352 11.8477 11.623 11.6719 11.7988C11.4961 11.9746 11.4082 12.2285 11.4082 12.5605V23H8.86914V12.5605C8.86914 11.9095 8.98633 11.3561 9.2207 10.9004C9.46159 10.4447 9.75781 10.0768 10.1094 9.79688C10.4674 9.51693 10.8548 9.3151 11.2715 9.19141C11.6882 9.0612 12.0723 8.99609 12.4238 8.99609H18.166C18.7389 8.99609 19.2533 9.07096 19.709 9.2207C20.1647 9.36393 20.5651 9.55924 20.9102 9.80664C21.2617 10.0475 21.5579 10.3275 21.7988 10.6465C22.0462 10.9655 22.248 11.3008 22.4043 11.6523C22.5671 11.9974 22.6842 12.349 22.7559 12.707C22.8275 13.0586 22.8633 13.3906 22.8633 13.7031V14.8555Z" fill="white"/>
<defs>
<linearGradient id="paint0_linear_8_75" x1="6.5" y1="3.5" x2="24.5" y2="30" gradientUnits="userSpaceOnUse">
<stop stop-color="#2563EB"/>
<stop offset="1" stop-color="#6C4BCA"/>
</linearGradient>
</defs>
</svg>
